<mxfile host="Electron" modified="2023-10-20T20:55:41.741Z" agent="Mozilla/5.0 (Windows NT 10.0; Win64; x64) AppleWebKit/537.36 (KHTML, like Gecko) draw.io/22.0.3 Chrome/114.0.5735.289 Electron/25.8.4 Safari/537.36" etag="rwUy83RRdY27t22qHMjU" version="22.0.3" type="device">
  <diagram name="Sayfa -1" id="ENgW9gHKPaIMDdrEgWMI">
    <mxGraphModel dx="1102" dy="695" grid="1" gridSize="10" guides="1" tooltips="1" connect="1" arrows="1" fold="1" page="1" pageScale="1" pageWidth="827" pageHeight="1169" math="0" shadow="0">
      <root>
        <mxCell id="0" />
        <mxCell id="1" parent="0" />
        <mxCell id="kIPLEPT3KB7DaFigZ7mO-29" style="edgeStyle=orthogonalEdgeStyle;rounded=0;orthogonalLoop=1;jettySize=auto;html=1;entryX=0.5;entryY=0;entryDx=0;entryDy=0;" edge="1" parent="1" source="kIPLEPT3KB7DaFigZ7mO-1" target="kIPLEPT3KB7DaFigZ7mO-5">
          <mxGeometry relative="1" as="geometry" />
        </mxCell>
        <mxCell id="kIPLEPT3KB7DaFigZ7mO-1" value="START&lt;br&gt;" style="ellipse;whiteSpace=wrap;html=1;" vertex="1" parent="1">
          <mxGeometry x="230" y="20" width="120" height="80" as="geometry" />
        </mxCell>
        <mxCell id="kIPLEPT3KB7DaFigZ7mO-2" value="END" style="ellipse;whiteSpace=wrap;html=1;" vertex="1" parent="1">
          <mxGeometry x="230" y="650" width="120" height="80" as="geometry" />
        </mxCell>
        <mxCell id="kIPLEPT3KB7DaFigZ7mO-13" style="edgeStyle=orthogonalEdgeStyle;rounded=0;orthogonalLoop=1;jettySize=auto;html=1;exitX=1;exitY=0.5;exitDx=0;exitDy=0;entryX=0;entryY=0.5;entryDx=0;entryDy=0;" edge="1" parent="1" source="kIPLEPT3KB7DaFigZ7mO-3" target="kIPLEPT3KB7DaFigZ7mO-11">
          <mxGeometry relative="1" as="geometry" />
        </mxCell>
        <mxCell id="kIPLEPT3KB7DaFigZ7mO-21" style="edgeStyle=orthogonalEdgeStyle;rounded=0;orthogonalLoop=1;jettySize=auto;html=1;entryX=0.5;entryY=0;entryDx=0;entryDy=0;" edge="1" parent="1" source="kIPLEPT3KB7DaFigZ7mO-3" target="kIPLEPT3KB7DaFigZ7mO-10">
          <mxGeometry relative="1" as="geometry" />
        </mxCell>
        <mxCell id="kIPLEPT3KB7DaFigZ7mO-3" value="x&amp;lt;-3" style="rhombus;whiteSpace=wrap;html=1;" vertex="1" parent="1">
          <mxGeometry x="215" y="240" width="150" height="150" as="geometry" />
        </mxCell>
        <mxCell id="kIPLEPT3KB7DaFigZ7mO-15" style="edgeStyle=orthogonalEdgeStyle;rounded=0;orthogonalLoop=1;jettySize=auto;html=1;entryX=0;entryY=0.5;entryDx=0;entryDy=0;" edge="1" parent="1" source="kIPLEPT3KB7DaFigZ7mO-4" target="kIPLEPT3KB7DaFigZ7mO-9">
          <mxGeometry relative="1" as="geometry" />
        </mxCell>
        <mxCell id="kIPLEPT3KB7DaFigZ7mO-23" style="edgeStyle=orthogonalEdgeStyle;rounded=0;orthogonalLoop=1;jettySize=auto;html=1;entryX=0.5;entryY=0;entryDx=0;entryDy=0;" edge="1" parent="1" source="kIPLEPT3KB7DaFigZ7mO-4" target="kIPLEPT3KB7DaFigZ7mO-8">
          <mxGeometry relative="1" as="geometry" />
        </mxCell>
        <mxCell id="kIPLEPT3KB7DaFigZ7mO-4" value="-2&amp;lt;=x &amp;amp;&amp;amp; x&amp;lt;0" style="rhombus;whiteSpace=wrap;html=1;" vertex="1" parent="1">
          <mxGeometry x="488" y="240" width="150" height="150" as="geometry" />
        </mxCell>
        <mxCell id="kIPLEPT3KB7DaFigZ7mO-30" style="edgeStyle=orthogonalEdgeStyle;rounded=0;orthogonalLoop=1;jettySize=auto;html=1;entryX=0.5;entryY=0;entryDx=0;entryDy=0;" edge="1" parent="1" source="kIPLEPT3KB7DaFigZ7mO-5" target="kIPLEPT3KB7DaFigZ7mO-3">
          <mxGeometry relative="1" as="geometry" />
        </mxCell>
        <mxCell id="kIPLEPT3KB7DaFigZ7mO-5" value="x=-5" style="rounded=0;whiteSpace=wrap;html=1;" vertex="1" parent="1">
          <mxGeometry x="230" y="140" width="120" height="60" as="geometry" />
        </mxCell>
        <mxCell id="kIPLEPT3KB7DaFigZ7mO-25" style="edgeStyle=orthogonalEdgeStyle;rounded=0;orthogonalLoop=1;jettySize=auto;html=1;entryX=0.5;entryY=0;entryDx=0;entryDy=0;" edge="1" parent="1" source="kIPLEPT3KB7DaFigZ7mO-8" target="kIPLEPT3KB7DaFigZ7mO-18">
          <mxGeometry relative="1" as="geometry" />
        </mxCell>
        <mxCell id="kIPLEPT3KB7DaFigZ7mO-8" value="True&lt;br&gt;" style="text;html=1;strokeColor=none;fillColor=none;align=center;verticalAlign=middle;whiteSpace=wrap;rounded=0;" vertex="1" parent="1">
          <mxGeometry x="533" y="450" width="60" height="30" as="geometry" />
        </mxCell>
        <mxCell id="kIPLEPT3KB7DaFigZ7mO-19" style="edgeStyle=orthogonalEdgeStyle;rounded=0;orthogonalLoop=1;jettySize=auto;html=1;entryX=0.5;entryY=0;entryDx=0;entryDy=0;" edge="1" parent="1" source="kIPLEPT3KB7DaFigZ7mO-9" target="kIPLEPT3KB7DaFigZ7mO-16">
          <mxGeometry relative="1" as="geometry" />
        </mxCell>
        <mxCell id="kIPLEPT3KB7DaFigZ7mO-9" value="False&lt;br&gt;" style="text;html=1;strokeColor=none;fillColor=none;align=center;verticalAlign=middle;whiteSpace=wrap;rounded=0;" vertex="1" parent="1">
          <mxGeometry x="730" y="300" width="60" height="30" as="geometry" />
        </mxCell>
        <mxCell id="kIPLEPT3KB7DaFigZ7mO-22" style="edgeStyle=orthogonalEdgeStyle;rounded=0;orthogonalLoop=1;jettySize=auto;html=1;entryX=0.5;entryY=0;entryDx=0;entryDy=0;" edge="1" parent="1" source="kIPLEPT3KB7DaFigZ7mO-10" target="kIPLEPT3KB7DaFigZ7mO-17">
          <mxGeometry relative="1" as="geometry" />
        </mxCell>
        <mxCell id="kIPLEPT3KB7DaFigZ7mO-10" value="True&lt;br&gt;" style="text;html=1;strokeColor=none;fillColor=none;align=center;verticalAlign=middle;whiteSpace=wrap;rounded=0;" vertex="1" parent="1">
          <mxGeometry x="260" y="420" width="60" height="30" as="geometry" />
        </mxCell>
        <mxCell id="kIPLEPT3KB7DaFigZ7mO-14" style="edgeStyle=orthogonalEdgeStyle;rounded=0;orthogonalLoop=1;jettySize=auto;html=1;entryX=0;entryY=0.5;entryDx=0;entryDy=0;" edge="1" parent="1" source="kIPLEPT3KB7DaFigZ7mO-11" target="kIPLEPT3KB7DaFigZ7mO-4">
          <mxGeometry relative="1" as="geometry" />
        </mxCell>
        <mxCell id="kIPLEPT3KB7DaFigZ7mO-11" value="False&lt;br&gt;" style="text;html=1;strokeColor=none;fillColor=none;align=center;verticalAlign=middle;whiteSpace=wrap;rounded=0;" vertex="1" parent="1">
          <mxGeometry x="400" y="300" width="60" height="30" as="geometry" />
        </mxCell>
        <mxCell id="kIPLEPT3KB7DaFigZ7mO-26" style="edgeStyle=orthogonalEdgeStyle;rounded=0;orthogonalLoop=1;jettySize=auto;html=1;entryX=1;entryY=0.5;entryDx=0;entryDy=0;" edge="1" parent="1" source="kIPLEPT3KB7DaFigZ7mO-16" target="kIPLEPT3KB7DaFigZ7mO-2">
          <mxGeometry relative="1" as="geometry">
            <Array as="points">
              <mxPoint x="760" y="690" />
            </Array>
          </mxGeometry>
        </mxCell>
        <mxCell id="kIPLEPT3KB7DaFigZ7mO-16" value="x=𝑥&lt;sup&gt;2&lt;/sup&gt;&amp;nbsp;− 4x" style="rounded=0;whiteSpace=wrap;html=1;" vertex="1" parent="1">
          <mxGeometry x="700" y="480" width="120" height="70" as="geometry" />
        </mxCell>
        <mxCell id="kIPLEPT3KB7DaFigZ7mO-28" style="edgeStyle=orthogonalEdgeStyle;rounded=0;orthogonalLoop=1;jettySize=auto;html=1;entryX=0.5;entryY=0;entryDx=0;entryDy=0;" edge="1" parent="1" source="kIPLEPT3KB7DaFigZ7mO-17" target="kIPLEPT3KB7DaFigZ7mO-2">
          <mxGeometry relative="1" as="geometry" />
        </mxCell>
        <mxCell id="kIPLEPT3KB7DaFigZ7mO-17" value="x=(x&lt;sup&gt;3&lt;/sup&gt;+4)/x&lt;sup&gt;2&lt;/sup&gt;" style="rounded=0;whiteSpace=wrap;html=1;" vertex="1" parent="1">
          <mxGeometry x="230" y="510" width="120" height="60" as="geometry" />
        </mxCell>
        <mxCell id="kIPLEPT3KB7DaFigZ7mO-27" style="edgeStyle=orthogonalEdgeStyle;rounded=0;orthogonalLoop=1;jettySize=auto;html=1;entryX=1;entryY=0.5;entryDx=0;entryDy=0;" edge="1" parent="1" source="kIPLEPT3KB7DaFigZ7mO-18" target="kIPLEPT3KB7DaFigZ7mO-2">
          <mxGeometry relative="1" as="geometry">
            <Array as="points">
              <mxPoint x="560" y="690" />
            </Array>
          </mxGeometry>
        </mxCell>
        <mxCell id="kIPLEPT3KB7DaFigZ7mO-18" value="x=|𝑥&lt;sup&gt;2&lt;/sup&gt;&amp;nbsp;+ 3𝑥 − 10| " style="rounded=0;whiteSpace=wrap;html=1;" vertex="1" parent="1">
          <mxGeometry x="476.5" y="525" width="173" height="60" as="geometry" />
        </mxCell>
      </root>
    </mxGraphModel>
  </diagram>
</mxfile>
